<svg width="640" height="360" viewBox="0 0 640 360" xmlns="http://www.w3.org/2000/svg" role="img" aria-label="Illustration FranzIQ minimal">
  <defs>
    <linearGradient id="bg" x1="0" y1="0" x2="1" y2="1">
      <stop offset="0%" stop-color="#ecfeff"/>
      <stop offset="100%" stop-color="#f0f9ff"/>
    </linearGradient>
    <linearGradient id="accent" x1="0" y1="0" x2="1" y2="1">
      <stop offset="0%" stop-color="#2dd4bf"/>
      <stop offset="100%" stop-color="#0ea5e9"/>
    </linearGradient>
  </defs>
  <rect width="640" height="360" rx="18" fill="url(#bg)"/>

  <!-- Device frame -->
  <g transform="translate(380,44)">
    <rect x="0" y="0" width="200" height="272" rx="18" fill="#fff" stroke="#e5e7eb"/>
    <rect x="60" y="10" width="80" height="6" rx="3" fill="#e5e7eb"/>

    <!-- Question visual: 3 shapes row -->
    <g transform="translate(24,44)">
      <circle cx="24" cy="24" r="18" fill="#e2e8f0" stroke="#0f172a" stroke-width="1"/>
      <rect x="64" y="6" width="36" height="36" rx="6" fill="#e2e8f0" stroke="#0f172a" stroke-width="1"/>
      <polygon points="144,42 126,6 162,6" fill="#e2e8f0" stroke="#0f172a" stroke-width="1"/>
    </g>

    <!-- Options: four rounded buttons -->
    <g transform="translate(20,112)">
      <rect x="0" y="0" width="160" height="30" rx="8" fill="#f1f5f9"/>
      <rect x="0" y="40" width="160" height="30" rx="8" fill="#f1f5f9"/>
      <rect x="0" y="80" width="160" height="30" rx="8" fill="#f1f5f9"/>
      <rect x="0" y="120" width="160" height="30" rx="8" fill="#f1f5f9"/>
    </g>

    <!-- CTA bar -->
    <rect x="20" y="232" width="160" height="28" rx="8" fill="url(#accent)" opacity="0.85"/>
  </g>

  <!-- Accent dots to balance composition -->
  <circle cx="88" cy="86" r="6" fill="url(#accent)" opacity="0.35"/>
  <circle cx="120" cy="64" r="4" fill="url(#accent)" opacity="0.25"/>
  <circle cx="148" cy="92" r="3" fill="url(#accent)" opacity="0.25"/>
</svg>


